<?xml version="1.0" standalone="no"?>
<!DOCTYPE svg PUBLIC "-//W3C//DTD SVG 20010904//EN"
 "http://www.w3.org/TR/2001/REC-SVG-20010904/DTD/svg10.dtd">
<svg version="1.0" xmlns="http://www.w3.org/2000/svg"
 width="400.000000pt" height="400.000000pt" viewBox="0 0 400.000000 400.000000"
 preserveAspectRatio="xMidYMid meet">

<g transform="translate(0.000000,400.000000) scale(0.100000,-0.100000)"
fill="#000000" stroke="none">
<path d="M2486 2800 c-37 -22 -70 -40 -72 -40 -3 0 -350 -201 -584 -338 -80
-47 -157 -92 -172 -99 -35 -18 -41 -28 -25 -40 18 -15 108 -43 117 -38 5 3 10
1 12 -5 1 -5 14 -11 28 -12 14 -2 28 -7 31 -11 3 -4 17 -9 30 -11 51 -5 61
-21 109 -162 36 -105 52 -139 64 -138 9 1 13 -2 10 -7 -3 -5 3 -9 13 -9 12 0
44 34 87 93 l69 94 48 -24 c27 -13 58 -24 68 -26 11 -2 25 -8 33 -14 7 -6 23
-14 35 -17 27 -9 37 11 52 102 6 31 15 82 20 112 15 84 60 344 77 445 9 50 22
103 30 119 17 36 18 66 1 66 -7 0 -43 -18 -81 -40z m40 -40 c0 -8 -4 -28 -9
-45 -15 -51 -26 -106 -88 -455 -12 -63 -23 -138 -26 -167 -4 -39 -10 -52 -24
-56 -11 -3 -19 -2 -19 3 0 4 -18 15 -40 24 -21 8 -58 24 -82 35 -24 10 -59 24
-78 31 -51 19 -54 25 -28 51 13 13 57 71 97 129 41 58 91 128 111 155 43 59
123 174 135 194 6 11 2 13 -21 7 -16 -4 -24 -3 -19 1 13 10 13 28 1 40 -5 4
-6 3 -2 -4 3 -6 -1 -14 -11 -17 -10 -3 -121 -109 -246 -235 -137 -137 -238
-231 -253 -234 -13 -2 -22 -1 -19 2 3 6 -140 54 -198 66 -24 5 -26 7 -13 20 8
8 19 15 25 15 5 0 34 14 63 31 50 30 66 39 153 89 19 11 51 29 70 40 19 11 51
29 70 40 19 11 52 29 73 41 20 12 42 25 47 29 6 4 27 17 48 29 98 55 114 65
139 82 14 11 30 19 35 19 4 1 24 14 43 31 36 31 65 35 66 9z m-116 -140 c-6
-4 -12 -14 -14 -22 -1 -9 -24 -40 -50 -69 -27 -30 -72 -87 -100 -128 -28 -40
-69 -100 -92 -132 -23 -33 -56 -76 -74 -96 -26 -28 -34 -47 -38 -87 -2 -28 -9
-56 -13 -62 -6 -7 -5 -23 2 -40 10 -27 12 -28 19 -9 5 11 14 48 21 83 8 35 20
69 28 75 12 9 13 9 8 0 -8 -13 28 -37 43 -28 22 14 17 -16 -9 -49 -16 -20 -44
-59 -61 -86 -18 -28 -36 -50 -41 -50 -4 0 -16 26 -25 58 -9 31 -25 85 -36 120
-11 34 -18 66 -16 71 2 5 71 79 153 164 83 84 182 188 220 229 39 42 74 73 79
71 4 -3 3 -9 -4 -13z"/>
<path d="M1422 1864 c5 -25 74 -62 89 -47 9 9 2 17 -30 37 -47 30 -64 33 -59
10z"/>
<path d="M1859 1853 c-1 -4 -1 -12 0 -16 1 -4 -6 -7 -16 -5 -10 2 -19 -4 -21
-14 -2 -10 2 -18 8 -18 22 0 71 31 67 43 -4 14 -36 22 -38 10z"/>
<path d="M1584 1788 c-8 -13 36 -29 74 -26 25 2 37 8 37 18 0 11 -13 15 -53
15 -29 1 -55 -2 -58 -7z"/>
<path d="M2562 1689 c-30 -32 -62 -141 -62 -212 0 -55 -3 -67 -25 -87 -23 -21
-25 -22 -31 -5 -4 10 -2 43 4 73 7 31 10 58 7 60 -13 13 -34 -13 -54 -67 -14
-39 -28 -61 -38 -61 -13 0 -14 8 -9 48 4 26 9 55 12 65 3 10 0 17 -9 17 -20 0
-34 -19 -42 -60 -12 -60 -15 -67 -41 -78 -35 -16 -69 -15 -84 3 -16 19 8 48
63 76 22 12 37 27 37 38 0 16 -9 18 -77 17 -62 -1 -78 -4 -78 -16 0 -10 12
-16 38 -18 l37 -3 -52 -49 c-32 -30 -62 -49 -77 -50 -24 0 -24 1 -17 78 3 42
9 92 12 110 6 31 5 33 -17 30 -17 -2 -25 -12 -31 -38 -20 -80 -41 -136 -61
-157 -47 -52 -105 -9 -93 69 17 108 66 152 169 154 64 1 100 14 84 31 -4 4
-34 9 -68 11 -139 10 -239 -86 -239 -230 0 -38 -15 -58 -43 -58 -17 0 -19 5
-12 48 12 75 11 86 -8 90 -12 2 -33 -12 -59 -40 -37 -39 -40 -41 -34 -16 3 14
9 33 12 42 4 11 0 16 -14 16 -16 0 -24 -10 -31 -37 -6 -21 -11 -48 -11 -60 0
-17 -9 -24 -37 -32 -57 -16 -145 -14 -171 5 -44 31 -14 82 55 93 45 8 61 41
19 41 -29 0 -56 24 -56 50 0 25 37 50 76 50 37 0 55 -18 52 -51 -2 -18 2 -24
17 -24 16 0 21 7 22 35 4 45 -16 69 -60 77 -86 14 -157 -28 -157 -91 0 -25 6
-38 20 -46 25 -13 26 -30 2 -30 -32 0 -64 -44 -60 -81 5 -53 52 -79 144 -79
40 0 85 5 100 10 19 7 30 7 40 -1 17 -14 44 -5 44 16 0 21 38 95 49 95 5 0 8
-26 7 -57 -1 -58 -1 -58 31 -61 22 -2 37 3 51 19 l21 21 27 -21 c38 -30 89
-28 120 6 26 28 26 28 43 -4 9 -18 20 -23 49 -23 21 0 43 5 50 12 9 9 17 9 34
0 45 -22 86 -24 123 -6 27 13 39 14 48 5 18 -18 48 -13 54 9 3 11 9 20 13 20
4 0 10 -9 13 -20 6 -24 58 -28 77 -5 7 8 18 15 25 15 7 0 15 -7 19 -15 10 -26
69 -19 99 13 27 28 35 52 19 52 -5 0 -17 -9 -27 -20 -20 -23 -63 -27 -71 -7
-2 7 11 40 31 73 61 101 81 197 47 227 -24 22 -37 21 -60 -4z m18 -153 c-12
-34 -26 -65 -31 -71 -26 -27 8 171 34 204 23 28 20 -68 -3 -133z"/>
<path d="M3035 1200 c-11 -5 -14 -9 -7 -9 17 -1 17 -212 0 -229 -9 -9 -9 -12
3 -11 21 2 66 17 52 18 -10 1 -13 32 -13 121 0 66 -3 120 -7 119 -5 0 -17 -4
-28 -9z"/>
<path d="M1770 1175 c0 -8 7 -15 15 -15 8 0 15 7 15 15 0 8 -7 15 -15 15 -8 0
-15 -7 -15 -15z"/>
<path d="M1100 1168 c0 -5 7 -8 15 -8 22 0 22 -178 -1 -194 -12 -9 5 -12 74
-14 89 -2 90 -1 96 24 9 34 1 42 -14 15 -9 -17 -20 -21 -60 -21 l-50 0 0 45 0
45 44 0 c25 0 48 5 52 11 5 9 -8 10 -45 7 l-51 -5 0 43 0 44 46 0 c37 0 47 -4
51 -20 3 -11 9 -20 14 -20 8 0 9 9 9 48 0 4 -41 7 -90 7 -50 0 -90 -3 -90 -7z"/>
<path d="M2390 1076 c-27 -58 -54 -106 -60 -106 -5 0 -10 -3 -10 -7 0 -5 21
-8 48 -9 39 -1 43 1 25 9 -27 12 -29 25 -7 55 12 17 25 22 59 22 41 0 44 -2
50 -32 6 -24 3 -35 -9 -44 -14 -10 -9 -12 33 -11 28 1 51 5 51 10 0 4 -7 7
-15 7 -16 0 -22 11 -64 129 -14 41 -32 76 -39 79 -8 2 -31 -35 -62 -102z m76
19 c7 -22 14 -41 14 -42 0 -2 -18 -3 -41 -3 -35 0 -40 3 -34 18 4 9 12 30 17
45 13 36 27 31 44 -18z"/>
<path d="M1596 1111 c-3 -4 -18 -6 -33 -3 -27 5 -27 4 -12 -14 9 -10 27 -47
39 -82 13 -34 28 -61 34 -59 6 2 30 38 52 80 37 68 40 77 23 77 -10 0 -19 -7
-19 -15 0 -19 -42 -105 -51 -105 -4 0 -14 23 -23 51 -16 48 -16 52 1 65 10 7
13 14 6 14 -6 0 -14 -4 -17 -9z"/>
<path d="M2128 1109 c-28 -11 -44 -41 -33 -59 4 -6 23 -18 43 -28 24 -11 37
-24 37 -37 0 -30 -44 -33 -67 -3 l-18 23 0 -27 c0 -26 3 -28 39 -28 50 0 91
31 75 56 -6 10 -19 22 -30 28 -63 34 -66 37 -53 52 16 19 49 18 66 -3 12 -17
13 -16 11 7 -3 28 -27 35 -70 19z"/>
<path d="M2604 1111 c-2 -2 -4 -13 -4 -24 0 -18 1 -19 18 -4 9 8 31 17 47 19
26 3 24 4 -13 9 -24 2 -45 3 -48 0z"/>
<path d="M2936 1111 c-4 -6 -14 -7 -24 -4 -14 5 -15 3 -4 -8 6 -7 12 -36 12
-65 0 -50 -1 -53 -30 -59 -50 -11 -63 8 -55 77 6 54 6 58 -13 58 -12 0 -24 -4
-27 -10 -3 -5 -1 -10 4 -10 7 0 11 -24 11 -60 0 -72 18 -89 75 -70 24 8 40 8
54 1 11 -6 27 -8 37 -4 15 6 15 7 -5 15 -20 7 -22 14 -20 73 2 64 -3 86 -15
66z"/>
<path d="M1350 1105 c-1 0 -2 -35 -3 -77 l-2 -77 30 6 c35 7 45 13 21 13 -14
0 -17 9 -14 58 l3 57 39 3 c24 2 42 -2 47 -10 14 -22 10 -82 -8 -107 -16 -24
-16 -24 8 -18 13 4 31 7 39 7 11 0 12 2 3 8 -7 4 -13 36 -15 72 l-3 65 -72 0
c-40 1 -73 1 -73 0z"/>
<path d="M1768 1045 c3 -45 0 -70 -9 -82 -12 -15 -12 -16 4 -10 10 4 28 7 40
7 16 0 18 3 9 9 -10 6 -13 27 -10 75 3 61 1 66 -17 66 -19 0 -21 -5 -17 -65z"/>
<path d="M1896 1089 c-20 -16 -26 -29 -26 -59 0 -63 47 -92 115 -70 41 13 55
35 55 84 0 25 -6 39 -22 50 -32 23 -90 20 -122 -5z m92 -5 c16 -11 22 -25 22
-53 0 -44 -18 -63 -57 -63 -34 0 -53 26 -53 73 0 55 42 76 88 43z"/>
<path d="M2703 1104 c3 -4 -21 -36 -54 -73 -43 -47 -55 -67 -44 -69 9 -2 26 9
38 25 12 15 41 49 66 76 l44 47 -28 0 c-16 0 -26 -3 -22 -6z"/>
<path d="M2727 994 c-5 -13 -20 -25 -40 -30 l-32 -8 34 -3 c40 -5 54 6 49 38
-4 24 -4 24 -11 3z"/>
</g>
</svg>
